<svg width="100" height="100"  fill="none" xmlns="http://www.w3.org/2000/svg">
<g id="LOGO">
<rect id="Rectangle 1" width="100" height="100" fill="#1E1E1E"/>
<path id="S" d="M58.3474 40.7273C58.1343 38.928 57.2702 37.5312 55.7551 36.5369C54.2399 35.5426 52.3815 35.0455 50.1798 35.0455C48.5699 35.0455 47.1613 35.3059 45.9539 35.8267C44.7584 36.3475 43.8232 37.0637 43.1485 37.9751C42.4856 38.8866 42.1542 39.9223 42.1542 41.0824C42.1542 42.053 42.385 42.8875 42.8467 43.5859C43.3202 44.2725 43.9239 44.8466 44.6578 45.3082C45.3917 45.758 46.1611 46.1309 46.966 46.4268C47.7709 46.7109 48.5107 46.9418 49.1855 47.1193L52.8786 48.1136C53.8256 48.3622 54.8791 48.7055 56.0392 49.1435C57.211 49.5814 58.3296 50.1792 59.395 50.9368C60.4722 51.6825 61.3599 52.6413 62.0583 53.8132C62.7567 54.9851 63.1059 56.4233 63.1059 58.1278C63.1059 60.0928 62.591 61.8684 61.5612 63.4545C60.5432 65.0407 59.0517 66.3014 57.0867 67.2365C55.1336 68.1716 52.7603 68.6392 49.9667 68.6392C47.3625 68.6392 45.1076 68.219 43.2018 67.3786C41.3079 66.5381 39.8164 65.3662 38.7274 63.8629C37.6502 62.3596 37.0406 60.6136 36.8985 58.625H41.444C41.5624 59.9981 42.024 61.1345 42.8289 62.0341C43.6457 62.9219 44.6755 63.5848 45.9184 64.0227C47.1731 64.4489 48.5226 64.6619 49.9667 64.6619C51.6476 64.6619 53.1568 64.3897 54.4944 63.8452C55.832 63.2888 56.8914 62.5194 57.6727 61.5369C58.4539 60.5426 58.8445 59.3826 58.8445 58.0568C58.8445 56.8494 58.5072 55.867 57.8325 55.1094C57.1578 54.3518 56.27 53.7363 55.1691 53.2628C54.0683 52.7893 52.8786 52.375 51.6002 52.0199L47.1258 50.7415C44.2849 49.9247 42.0358 48.7588 40.3786 47.2436C38.7214 45.7285 37.8928 43.7457 37.8928 41.2955C37.8928 39.2595 38.4433 37.4839 39.5441 35.9688C40.6568 34.4418 42.1483 33.258 44.0186 32.4176C45.9007 31.5653 48.0017 31.1392 50.3218 31.1392C52.6656 31.1392 54.7489 31.5594 56.5718 32.3999C58.3947 33.2285 59.8389 34.3648 60.9042 35.8089C61.9814 37.2531 62.5496 38.8925 62.6088 40.7273H58.3474Z" fill="white"/>
</g>
</svg>